ground reactions
version=1
nRows=49
nColumns=19
inDegrees=no
endheader
time	ground_force_l_vx	ground_force_l_vy	ground_force_l_vz	ground_force_l_px	ground_force_l_py	ground_force_l_pz	ground_torque_l_x	ground_torque_l_y	ground_torque_l_z	ground_force_r_vx	ground_force_r_vy	ground_force_r_vz	ground_force_r_px	ground_force_r_py	ground_force_r_pz	ground_torque_r_x	ground_torque_r_y	ground_torque_r_z
2.650000	-0.000163	0.006949	0.000644	0.000041	0.000000	-0.000039	0.000000	-0.000086	0.000000	-60.128780	650.600915	-41.133405	0.860134	0.000000	-0.393020	0.000000	-0.196745	0.000000
2.651042	-0.000139	0.005855	0.000543	0.000051	0.000000	-0.000049	0.000000	-0.000073	0.000000	-59.814697	649.780004	-41.100746	0.859397	0.000000	-0.393042	0.000000	-0.156269	0.000000
2.652083	-0.000119	0.004934	0.000458	0.000055	0.000000	-0.000053	0.000000	-0.000061	0.000000	-59.502702	648.920805	-41.065025	0.858665	0.000000	-0.393064	0.000000	-0.116399	0.000000
2.653125	-0.000102	0.004158	0.000387	0.000052	0.000000	-0.000050	0.000000	-0.000051	0.000000	-59.192992	648.023920	-41.026598	0.857939	0.000000	-0.393086	0.000000	-0.077182	0.000000
2.654167	-0.000088	0.003504	0.000327	0.000045	0.000000	-0.000043	0.000000	-0.000043	0.000000	-58.885762	647.090021	-40.985848	0.857219	0.000000	-0.393108	0.000000	-0.038658	0.000000
2.655208	-0.000076	0.002953	0.000276	0.000035	0.000000	-0.000034	0.000000	-0.000036	0.000000	-58.581214	646.119843	-40.943170	0.856506	0.000000	-0.393130	0.000000	-0.000866	0.000000
2.656250	-0.000065	0.002488	0.000233	0.000024	0.000000	-0.000024	0.000000	-0.000030	0.000000	-58.279552	645.114190	-40.898973	0.855799	0.000000	-0.393152	0.000000	0.036157	0.000000
2.657292	-0.000057	0.002095	0.000197	0.000014	0.000000	-0.000013	0.000000	-0.000025	0.000000	-57.980983	644.073924	-40.853662	0.855098	0.000000	-0.393174	0.000000	0.072381	0.000000
2.658333	-0.000049	0.001763	0.000166	0.000004	0.000000	-0.000004	0.000000	-0.000021	0.000000	-57.685715	642.999964	-40.807643	0.854404	0.000000	-0.393195	0.000000	0.107775	0.000000
2.659375	-0.000042	0.001483	0.000140	-0.000004	-0.000000	0.000004	0.000000	-0.000018	0.000000	-57.393957	641.893283	-40.761307	0.853717	0.000000	-0.393216	0.000000	0.142314	0.000000
2.660417	-0.000036	0.001246	0.000118	-0.000010	-0.000000	0.000010	0.000000	-0.000015	0.000000	-57.105915	640.754901	-40.715034	0.853037	0.000000	-0.393236	0.000000	0.175975	0.000000
2.661458	-0.000031	0.001045	0.000099	-0.000014	-0.000000	0.000013	0.000000	-0.000012	0.000000	-56.821788	639.585879	-40.669178	0.852364	0.000000	-0.393255	0.000000	0.208741	0.000000
2.662500	-0.000026	0.000876	0.000083	-0.000015	-0.000000	0.000015	0.000000	-0.000010	0.000000	-56.541770	638.387316	-40.624071	0.851698	0.000000	-0.393272	0.000000	0.240594	0.000000
2.663542	-0.000022	0.000733	0.000069	-0.000015	-0.000000	0.000014	0.000000	-0.000009	0.000000	-56.266040	637.160342	-40.580019	0.851040	0.000000	-0.393288	0.000000	0.271523	0.000000
2.664583	-0.000019	0.000612	0.000058	-0.000013	-0.000000	0.000013	0.000000	-0.000007	0.000000	-55.994760	635.906111	-40.537292	0.850389	0.000000	-0.393301	0.000000	0.301518	0.000000
2.665625	-0.000016	0.000511	0.000048	-0.000011	-0.000000	0.000010	0.000000	-0.000006	0.000000	-55.728075	634.625796	-40.496134	0.849745	0.000000	-0.393313	0.000000	0.330575	0.000000
2.666667	-0.000013	0.000426	0.000040	-0.000008	-0.000000	0.000008	0.000000	-0.000005	0.000000	-55.466104	633.320586	-40.456750	0.849109	0.000000	-0.393321	0.000000	0.358690	0.000000
2.667708	-0.000011	0.000355	0.000034	-0.000005	-0.000000	0.000005	0.000000	-0.000004	0.000000	-55.208939	631.991679	-40.419316	0.848481	0.000000	-0.393327	0.000000	0.385865	0.000000
2.668750	-0.000009	0.000296	0.000028	-0.000002	-0.000000	0.000002	0.000000	-0.000003	0.000000	-54.956641	630.640278	-40.383970	0.847859	0.000000	-0.393330	0.000000	0.412104	0.000000
2.669792	-0.000007	0.000246	0.000023	0.000000	0.000000	-0.000000	0.000000	-0.000003	0.000000	-54.709236	629.267587	-40.350823	0.847244	0.000000	-0.393329	0.000000	0.437415	0.000000
2.670833	-0.000006	0.000206	0.000019	0.000002	0.000000	-0.000002	0.000000	-0.000002	0.000000	-54.466714	627.874807	-40.319950	0.846636	0.000000	-0.393325	0.000000	0.461809	0.000000
2.671875	-0.000005	0.000172	0.000016	0.000003	0.000000	-0.000003	0.000000	-0.000002	0.000000	-54.229025	626.463134	-40.291400	0.846034	0.000000	-0.393318	0.000000	0.485302	0.000000
2.672917	-0.000004	0.000143	0.000014	0.000004	0.000000	-0.000004	0.000000	-0.000002	0.000000	-53.996079	625.033756	-40.265196	0.845437	0.000000	-0.393306	0.000000	0.507910	0.000000
2.673958	-0.000003	0.000120	0.000011	0.000004	0.000000	-0.000004	0.000000	-0.000001	0.000000	-53.767741	623.587852	-40.241333	0.844845	0.000000	-0.393291	0.000000	0.529655	0.000000
2.675000	-0.000003	0.000101	0.000010	0.000004	0.000000	-0.000004	0.000000	-0.000001	0.000000	-53.543837	622.126589	-40.219789	0.844258	0.000000	-0.393273	0.000000	0.550561	0.000000
2.676042	-0.000002	0.000085	0.000008	0.000003	0.000000	-0.000003	0.000000	-0.000001	0.000000	-53.324149	620.651124	-40.200521	0.843675	0.000000	-0.393250	0.000000	0.570655	0.000000
2.677083	-0.000002	0.000071	0.000007	0.000002	0.000000	-0.000002	0.000000	-0.000001	0.000000	-53.108419	619.162600	-40.183468	0.843094	0.000000	-0.393224	0.000000	0.589969	0.000000
2.678125	-0.000002	0.000060	0.000006	0.000002	0.000000	-0.000002	0.000000	-0.000001	0.000000	-52.896347	617.662151	-40.168559	0.842516	0.000000	-0.393194	0.000000	0.608536	0.000000
2.679167	-0.000002	0.000050	0.000005	0.000001	0.000000	-0.000001	0.000000	-0.000001	0.000000	-52.687597	616.150895	-40.155711	0.841939	0.000000	-0.393161	0.000000	0.626391	0.000000
2.680208	-0.000001	0.000042	0.000004	0.000000	0.000000	-0.000000	0.000000	-0.000000	0.000000	-52.481797	614.629943	-40.144830	0.841363	0.000000	-0.393124	0.000000	0.643573	0.000000
2.681250	-0.000001	0.000035	0.000003	-0.000000	-0.000000	0.000000	0.000000	-0.000000	0.000000	-52.278544	613.100393	-40.135818	0.840787	0.000000	-0.393084	0.000000	0.660125	0.000000
2.682292	-0.000001	0.000030	0.000003	-0.000001	-0.000000	0.000001	0.000000	-0.000000	0.000000	-52.077406	611.563333	-40.128570	0.840210	0.000000	-0.393041	0.000000	0.676088	0.000000
2.683333	-0.000001	0.000025	0.000002	-0.000001	-0.000000	0.000001	0.000000	-0.000000	0.000000	-51.877926	610.019843	-40.122980	0.839631	0.000000	-0.392995	0.000000	0.691510	0.000000
2.684375	-0.000001	0.000020	0.000002	-0.000001	-0.000000	0.000001	0.000000	-0.000000	0.000000	-51.679627	608.470993	-40.118936	0.839050	0.000000	-0.392947	0.000000	0.706437	0.000000
2.685417	-0.000001	0.000017	0.000002	-0.000001	-0.000000	0.000001	0.000000	-0.000000	0.000000	-51.482016	606.917845	-40.116326	0.838465	0.000000	-0.392895	0.000000	0.720918	0.000000
2.686458	-0.000000	0.000014	0.000001	-0.000001	-0.000000	0.000001	0.000000	-0.000000	0.000000	-51.284590	605.361452	-40.115035	0.837876	0.000000	-0.392842	0.000000	0.735002	0.000000
2.687500	-0.000000	0.000011	0.000001	-0.000001	-0.000000	0.000001	0.000000	-0.000000	0.000000	-51.086836	603.802860	-40.114947	0.837282	0.000000	-0.392786	0.000000	0.748741	0.000000
2.688542	-0.000000	0.000009	0.000001	-0.000001	-0.000000	0.000001	0.000000	-0.000000	0.000000	-50.888240	602.243103	-40.115945	0.836682	0.000000	-0.392729	0.000000	0.762186	0.000000
2.689583	-0.000000	0.000008	0.000001	-0.000000	-0.000000	0.000000	0.000000	-0.000000	0.000000	-50.688292	600.683207	-40.117907	0.836076	0.000000	-0.392669	0.000000	0.775387	0.000000
2.690625	-0.000000	0.000006	0.000001	-0.000000	-0.000000	0.000000	0.000000	-0.000000	0.000000	-50.486484	599.124187	-40.120709	0.835462	0.000000	-0.392608	0.000000	0.788397	0.000000
2.691667	-0.000000	0.000005	0.000001	0.000000	0.000000	-0.000000	0.000000	-0.000000	0.000000	-50.282323	597.567045	-40.124222	0.834840	0.000000	-0.392545	0.000000	0.801263	0.000000
2.692708	-0.000000	0.000004	0.000000	0.000000	0.000000	-0.000000	0.000000	-0.000000	0.000000	-50.075328	596.012767	-40.128312	0.834209	0.000000	-0.392481	0.000000	0.814037	0.000000
2.693750	-0.000000	0.000004	0.000000	0.000000	0.000000	-0.000000	0.000000	-0.000000	0.000000	-49.865037	594.462323	-40.132839	0.833568	0.000000	-0.392416	0.000000	0.826765	0.000000
2.694792	-0.000000	0.000003	0.000000	0.000000	0.000000	-0.000000	0.000000	-0.000000	0.000000	-49.651011	592.916664	-40.137653	0.832918	0.000000	-0.392349	0.000000	0.839492	0.000000
2.695833	-0.000000	0.000003	0.000000	0.000000	0.000000	-0.000000	0.000000	-0.000000	0.000000	-49.432835	591.376720	-40.142596	0.832256	0.000000	-0.392281	0.000000	0.852261	0.000000
2.696875	0.000000	0.000002	0.000000	0.000000	0.000000	-0.000000	0.000000	-0.000000	0.000000	-49.210123	589.843392	-40.147503	0.831584	0.000000	-0.392212	0.000000	0.865111	0.000000
2.697917	0.000000	0.000002	0.000000	0.000000	0.000000	-0.000000	0.000000	-0.000000	0.000000	-48.982521	588.317555	-40.152193	0.830900	0.000000	-0.392142	0.000000	0.878081	0.000000
2.698958	0.000000	0.000002	0.000000	0.000000	0.000000	-0.000000	0.000000	-0.000000	0.000000	-48.749707	586.800053	-40.156479	0.830204	0.000000	-0.392072	0.000000	0.891201	0.000000
2.700000	0.000000	0.000001	0.000000	0.000000	0.000000	-0.000000	0.000000	-0.000000	0.000000	-48.511397	585.291693	-40.160157	0.829495	0.000000	-0.392001	0.000000	0.904501	0.000000
